<svg width="300" height="162" viewBox="0 0 300 162" fill="none" xmlns="http://www.w3.org/2000/svg">
<g clip-path="url(#clip0_182_726)">
<path d="M0.00976562 110.853V63.7871H10.816C18.723 63.7871 22.6765 68.3914 22.6765 77.6C22.6765 80.3763 22.2481 82.7337 21.3913 84.6725C20.5346 86.6112 19.0301 88.1756 16.878 89.3655L24.1174 110.853H16.9992L10.741 90.7607H6.72205V110.853H0.00976562ZM6.73167 70.1359V84.8018H10.5524C11.7388 84.8018 12.6834 84.6371 13.3862 84.3078C14.0529 84.001 14.6183 83.5096 15.0157 82.8913C15.3979 82.184 15.6439 81.4109 15.741 80.6123C16.0053 78.5276 16.0053 76.4177 15.741 74.333C15.6363 73.5057 15.3675 72.7079 14.9503 71.9865C14.1154 70.754 12.534 70.1372 10.2061 70.1359H6.73167Z" fill="#053541"/>
<path d="M34.9238 110.853L45.3991 63.7871H50.9918L61.4767 110.853H54.7567L52.779 100.741H43.6215L41.6438 110.853H34.9238ZM51.5285 94.3963L48.233 77.3434H48.106L44.8104 94.3963H51.5285Z" fill="#053541"/>
<path d="M74.8477 110.853V63.7871H81.5811V110.853H74.8477Z" fill="#053541"/>
<path d="M97.7158 110.853V63.7871H104.174L114.32 92.154H114.453V63.7871H121.173V110.853H114.848L104.569 82.5652H104.438V110.853H97.7158Z" fill="#053541"/>
<path d="M143.378 110.853V90.9595L134.153 63.7871H141.272L146.672 82.5054H146.799L152.207 63.7871H159.325L150.09 90.9518V110.853H143.378Z" fill="#053541"/>
<path d="M172.566 110.853V63.7871H182.517C186.381 63.7871 189.313 64.8446 191.312 66.9596C193.312 69.0745 194.314 72.0733 194.317 75.9559V97.9644C194.317 102.372 193.252 105.622 191.122 107.713C188.992 109.805 185.928 110.852 181.932 110.853H172.566ZM179.288 70.1359V104.504H182.39C184.279 104.504 185.619 104.031 186.41 103.084C187.202 102.137 187.597 100.65 187.595 98.6224V75.9559C187.595 74.106 187.222 72.6741 186.476 71.6604C185.729 70.6466 184.367 70.1398 182.39 70.1398L179.288 70.1359Z" fill="#053541"/>
<path d="M206.697 110.853L217.175 63.7871H222.775L233.252 110.845H226.532L224.554 100.734H215.395L213.419 110.845L206.697 110.853ZM223.302 94.3963L220.008 77.3434H219.876L216.582 94.3963H223.302Z" fill="#053541"/>
<path d="M249.067 110.853V90.9595L239.842 63.7871H246.96L252.362 82.5054H252.493L257.897 63.7871H265.015L255.781 90.9518V110.853H249.067Z" fill="#053541"/>
<path d="M300 77.3434H293.278V75.8228C293.278 74.279 292.916 72.9462 292.191 71.8244C291.467 70.7026 290.248 70.1411 288.536 70.1398C287.615 70.1398 286.866 70.3154 286.297 70.6685C285.745 71.0024 285.273 71.4536 284.913 71.9904C284.552 72.5886 284.306 73.2498 284.188 73.9394C284.056 74.6924 283.992 75.4558 283.996 76.2203C283.988 76.9934 284.022 77.7664 284.096 78.536C284.149 79.1139 284.317 79.6754 284.588 80.1878C284.87 80.6915 285.265 81.1219 285.743 81.4441C286.393 81.8735 287.088 82.2295 287.817 82.5054L292.955 84.5528C294.448 85.1253 295.656 85.7975 296.58 86.5694C297.475 87.3077 298.214 88.2176 298.754 89.2459C299.26 90.3907 299.594 91.6051 299.742 92.8487C299.928 94.3723 300.017 95.9064 300.006 97.4414C300.02 99.2978 299.821 101.15 299.414 102.96C299.079 104.52 298.428 105.993 297.501 107.289C296.553 108.545 295.308 109.544 293.879 110.197C292.384 110.901 290.561 111.253 288.409 111.254C286.852 111.268 285.308 110.976 283.863 110.396C282.507 109.857 281.273 109.048 280.239 108.016C279.224 106.998 278.409 105.799 277.834 104.481C277.233 103.095 276.93 101.597 276.945 100.085V97.5765H283.665V99.6992C283.654 100.901 284.036 102.072 284.752 103.036C285.476 104.028 286.695 104.523 288.407 104.523C289.549 104.523 290.438 104.358 291.076 104.028C291.699 103.711 292.215 103.217 292.559 102.607C292.929 101.925 293.142 101.168 293.184 100.392C293.249 99.5326 293.282 98.5742 293.282 97.5167C293.292 96.502 293.248 95.4875 293.151 94.4774C293.102 93.8036 292.924 93.1458 292.626 92.5399C292.317 92.0536 291.899 91.6461 291.406 91.3493C290.761 90.9718 290.09 90.6404 289.398 90.3574L284.588 88.3756C281.691 87.1843 279.747 85.609 278.757 83.6497C277.767 81.6904 277.273 79.2339 277.276 76.2801C277.267 74.5808 277.511 72.8897 278.001 71.2629C278.438 69.7622 279.178 68.3677 280.175 67.1661C281.128 65.9962 282.333 65.058 283.7 64.422C285.127 63.7402 286.829 63.3986 288.805 63.3973C290.38 63.3779 291.942 63.6936 293.386 64.3236C294.723 64.9092 295.94 65.7381 296.976 66.7686C298.996 68.8835 300.007 71.3072 300.008 74.0397L300 77.3434Z" fill="#053541"/>
<path d="M50.7412 144.052H55.5874C56.0991 144.05 56.6097 144.101 57.111 144.204C57.6583 144.369 58.165 144.647 58.5982 145.021C59.0487 145.367 59.402 145.826 59.6236 146.35C59.9106 146.967 60.0508 147.643 60.0334 148.324C60.0326 149.354 59.661 150.349 58.9868 151.126C58.2711 152.013 57.2246 152.468 55.8471 152.492H52.7689V157.896H50.7412V144.052ZM52.7651 150.52H55.7701C56.523 150.506 57.0892 150.264 57.4689 149.795C57.8208 149.364 58.0126 148.825 58.0114 148.268C58.0235 147.866 57.9487 147.466 57.7921 147.095C57.6431 146.814 57.4202 146.58 57.1476 146.418C56.7153 146.142 56.2087 146.007 55.697 146.032H52.7651V150.52Z" fill="#053541"/>
<path d="M62.0635 148.041H63.9758V153.917C63.9758 154.582 64.1547 155.103 64.5164 155.476C64.6903 155.66 64.9012 155.806 65.1354 155.903C65.3695 156 65.6215 156.045 65.8746 156.037C66.1261 156.046 66.3764 156 66.6087 155.903C66.841 155.806 67.0499 155.661 67.2213 155.476C67.5772 155.103 67.7542 154.582 67.7542 153.917V148.041H69.6646V157.898H67.7542V156.844H67.7176C67.4256 157.217 67.0506 157.515 66.6226 157.717C66.1946 157.918 65.7256 158.015 65.2532 158.002C64.4548 157.985 63.692 157.667 63.1177 157.11C62.4277 156.543 62.0763 155.703 62.0635 154.59V148.041Z" fill="#053541"/>
<path d="M72.756 154.887C73.5333 155.73 74.5388 156.151 75.7726 156.151C76.2438 156.17 76.7106 156.055 77.1193 155.819C77.2825 155.726 77.4174 155.59 77.5098 155.425C77.6023 155.261 77.6488 155.075 77.6445 154.887C77.6445 154.534 77.5387 154.287 77.3309 154.148C77.0746 153.989 76.7782 153.906 76.4768 153.91L74.7857 153.758C74.0572 153.713 73.3663 153.418 72.8292 152.922C72.3136 152.454 72.0596 151.797 72.0385 150.956C72.0526 149.944 72.3982 149.184 73.0754 148.677C73.7526 148.17 74.592 147.919 75.5937 147.923C75.9904 147.92 76.3866 147.948 76.7788 148.007C77.113 148.067 77.4413 148.156 77.76 148.274C78.3381 148.515 78.8719 148.852 79.3394 149.27L78.1524 150.703C77.791 150.432 77.3998 150.204 76.9866 150.022C76.54 149.856 76.0662 149.775 75.5899 149.783C74.9896 149.783 74.5683 149.895 74.3298 150.115C74.2063 150.22 74.1077 150.351 74.0412 150.5C73.9746 150.648 73.9418 150.809 73.945 150.972C73.9412 151.084 73.9652 151.196 74.0149 151.297C74.0646 151.398 74.1384 151.485 74.2297 151.55C74.4144 151.734 74.7395 151.851 75.2051 151.902L76.7846 152.025C77.7773 152.101 78.4942 152.412 78.9354 152.957C79.3623 153.543 79.5792 154.256 79.5511 154.981C79.5623 155.414 79.4655 155.841 79.2696 156.226C79.0737 156.611 78.7849 156.941 78.4295 157.185C77.6958 157.718 76.757 157.991 75.613 158.003C74.0598 158.003 72.6624 157.415 71.4209 156.238L72.756 154.887Z" fill="#053541"/>
<path d="M81.7841 144.052H83.6964V149.081H83.7329C84.0255 148.708 84.4006 148.41 84.8285 148.209C85.2563 148.008 85.7251 147.91 86.1974 147.923C87.0008 147.928 87.7728 148.237 88.3598 148.787C89.0088 149.37 89.348 150.225 89.3775 151.352V157.913H87.4671V152.022C87.4671 151.331 87.2882 150.804 86.9342 150.443C86.7613 150.261 86.5519 150.117 86.3198 150.022C86.0877 149.927 85.8381 149.883 85.5875 149.891C85.3353 149.883 85.0841 149.928 84.8502 150.023C84.6163 150.118 84.4048 150.261 84.2293 150.443C83.8689 150.804 83.6887 151.331 83.6887 152.022V157.898H81.7783L81.7841 144.052Z" fill="#053541"/>
<path d="M92.2559 144.052H94.1662V146.026H92.2559V144.052ZM92.2559 148.04H94.1662V157.897H92.2559V148.04Z" fill="#053541"/>
<path d="M96.8467 148.04H98.759V149.081H98.7955C99.0886 148.707 99.465 148.408 99.8943 148.207C100.324 148.006 100.794 147.908 101.268 147.923C102.071 147.928 102.843 148.237 103.43 148.787C104.078 149.37 104.417 150.225 104.448 151.352V157.913H102.537V152.022C102.537 151.331 102.36 150.804 102.004 150.443C101.832 150.261 101.622 150.117 101.39 150.022C101.158 149.927 100.908 149.882 100.658 149.891C100.406 149.883 100.154 149.927 99.9203 150.022C99.6863 150.117 99.4748 150.261 99.2996 150.443C98.9379 150.804 98.759 151.331 98.759 152.022V157.898H96.8467V148.04Z" fill="#053541"/>
<path d="M112.61 156.869C112.309 157.228 111.933 157.517 111.509 157.714C111.085 157.911 110.622 158.013 110.155 158.011C109.614 158.02 109.082 157.878 108.616 157.602C108.242 157.4 107.909 157.13 107.635 156.805C107.371 156.453 107.187 156.047 107.094 155.617C106.979 155.153 106.92 154.273 106.919 152.975C106.919 151.651 106.977 150.754 107.094 150.285C107.188 149.864 107.372 149.469 107.635 149.127C107.9 148.784 108.234 148.5 108.616 148.295C109.09 148.046 109.619 147.919 110.155 147.927C111.101 147.927 111.92 148.313 112.61 149.084V148.04H114.52V157.66C114.492 159.145 114.08 160.234 113.285 160.927C112.492 161.636 111.461 162.02 110.399 162C109.117 161.976 108.018 161.426 107.104 160.35L108.587 159.129C108.838 159.369 109.122 159.571 109.431 159.729C109.738 159.909 110.083 160.011 110.438 160.026C111.017 160.054 111.584 159.851 112.015 159.462C112.217 159.253 112.374 159.005 112.478 158.733C112.582 158.461 112.63 158.171 112.619 157.88L112.61 156.869ZM108.831 152.979C108.818 153.501 108.842 154.023 108.904 154.542C108.935 154.812 109.04 155.069 109.206 155.285C109.362 155.486 109.559 155.652 109.784 155.771C110.065 155.945 110.389 156.037 110.719 156.037C111.05 156.037 111.374 155.945 111.655 155.771C111.879 155.651 112.076 155.485 112.233 155.285C112.4 155.068 112.511 154.812 112.554 154.542C112.601 154.022 112.619 153.5 112.61 152.979C112.619 152.444 112.6 151.909 112.554 151.377C112.514 151.111 112.403 150.862 112.235 150.653C112.074 150.447 111.878 150.27 111.657 150.13C111.37 149.973 111.048 149.891 110.721 149.891C110.394 149.891 110.073 149.973 109.785 150.13C109.563 150.268 109.368 150.445 109.208 150.653C109.037 150.859 108.929 151.111 108.899 151.377C108.839 151.909 108.816 152.444 108.831 152.979Z" fill="#053541"/>
<path d="M122.087 145.04H123.997V148.04H125.392V149.559H123.997V155.306C123.984 155.805 124.211 156.051 124.676 156.037H125.392V157.897H124.394C124.09 157.909 123.787 157.857 123.504 157.746C123.22 157.635 122.963 157.467 122.747 157.253C122.307 156.841 122.087 156.247 122.087 155.47V149.559H121.125V148.04H122.087V145.04Z" fill="#053541"/>
<path d="M127.368 144.052H129.279V149.081H129.315C129.609 148.707 129.985 148.408 130.415 148.207C130.845 148.006 131.315 147.908 131.789 147.923C132.593 147.928 133.365 148.237 133.952 148.787C134.599 149.37 134.938 150.225 134.969 151.352V157.913H133.059V152.022C133.059 151.331 132.88 150.804 132.526 150.443C132.353 150.261 132.144 150.117 131.912 150.022C131.679 149.927 131.43 149.883 131.179 149.891C130.927 149.883 130.676 149.928 130.442 150.023C130.208 150.118 129.997 150.261 129.821 150.443C129.461 150.804 129.28 151.331 129.28 152.022V157.898H127.368V144.052Z" fill="#053541"/>
<path d="M139.211 153.712C139.211 154.505 139.432 155.107 139.873 155.518C140.084 155.729 140.337 155.893 140.615 156.001C140.892 156.109 141.189 156.158 141.487 156.146C141.882 156.14 142.272 156.051 142.631 155.885C142.99 155.719 143.31 155.479 143.571 155.181L144.956 156.406C143.985 157.482 142.842 158.013 141.527 158C141.032 158.004 140.539 157.931 140.065 157.784C139.822 157.699 139.588 157.587 139.369 157.452C139.129 157.33 138.904 157.18 138.699 157.004C138.256 156.574 137.921 156.045 137.72 155.461C137.446 154.828 137.308 154.005 137.306 152.992C137.283 152.167 137.405 151.344 137.664 150.561C137.856 149.982 138.168 149.452 138.58 149.004C138.937 148.632 139.373 148.346 139.856 148.168C140.292 148.006 140.754 147.923 141.22 147.923C142.25 147.913 143.243 148.313 143.98 149.035C144.75 149.776 145.135 150.795 145.135 152.093V153.712H139.211ZM143.238 152.082C143.213 151.31 143.014 150.728 142.639 150.335C142.257 149.973 141.75 149.771 141.224 149.771C140.698 149.771 140.192 149.973 139.809 150.335C139.448 150.729 139.248 151.311 139.211 152.082H143.238Z" fill="#053541"/>
<path d="M161.306 154.03C161.012 155.317 160.452 156.302 159.626 156.986C158.771 157.671 157.704 158.034 156.61 158.011C155.754 158.008 154.915 157.775 154.179 157.338C153.443 156.901 152.836 156.274 152.422 155.524C152.323 155.313 152.229 155.115 152.156 154.925C152.069 154.685 152.005 154.437 151.964 154.184C151.873 153.626 151.827 152.556 151.827 150.975C151.827 149.366 151.873 148.291 151.964 147.745C152.034 147.281 152.186 146.834 152.414 146.425C152.784 145.735 153.32 145.148 153.972 144.717C154.676 144.209 155.554 143.952 156.604 143.945C157.896 143.958 158.947 144.353 159.759 145.13C160.57 145.911 161.109 146.931 161.298 148.042H159.157C158.996 147.491 158.684 146.996 158.257 146.614C157.788 146.235 157.204 146.031 156.602 146.035C156.175 146.036 155.754 146.138 155.373 146.33C155.043 146.504 154.755 146.748 154.528 147.044C154.25 147.374 154.068 147.775 154.005 148.202C153.907 148.696 153.858 149.626 153.857 150.991C153.856 152.356 153.905 153.279 154.005 153.76C154.066 154.191 154.248 154.597 154.528 154.929C154.752 155.223 155.042 155.461 155.373 155.624C155.746 155.842 156.172 155.951 156.604 155.939C157.743 155.939 158.595 155.307 159.159 154.045L161.306 154.03Z" fill="#053541"/>
<path d="M162.427 152.959C162.402 152.153 162.484 151.347 162.674 150.562C162.827 150.048 163.097 149.576 163.463 149.183C163.768 148.82 164.142 148.522 164.563 148.305C165.121 148.038 165.734 147.906 166.352 147.919C166.982 147.903 167.606 148.035 168.176 148.305C168.587 148.523 168.949 148.823 169.24 149.187C169.623 149.568 169.9 150.043 170.044 150.564C170.221 151.349 170.298 152.153 170.273 152.957C170.299 153.755 170.222 154.553 170.044 155.331C169.894 155.862 169.617 156.348 169.238 156.747C169.103 156.905 168.952 157.047 168.788 157.174C168.609 157.346 168.401 157.484 168.174 157.583C167.612 157.879 166.984 158.025 166.35 158.009C165.808 158.011 165.272 157.9 164.775 157.682C164.278 157.465 163.832 157.147 163.464 156.747C163.104 156.337 162.835 155.854 162.676 155.331C162.51 154.788 162.427 153.997 162.427 152.959ZM168.362 152.978C168.375 152.462 168.344 151.946 168.27 151.435C168.214 151.135 168.085 150.853 167.895 150.615C167.741 150.383 167.524 150.202 167.27 150.092C166.983 149.956 166.668 149.89 166.35 149.899C166.039 149.893 165.731 149.959 165.45 150.092C165.196 150.211 164.975 150.39 164.805 150.615C164.635 150.862 164.513 151.141 164.448 151.435C164.36 151.938 164.323 152.449 164.338 152.959C164.323 153.463 164.36 153.968 164.448 154.464C164.513 154.77 164.634 155.061 164.805 155.323C164.991 155.531 165.213 155.704 165.459 155.834C165.738 155.976 166.047 156.048 166.36 156.045C166.679 156.052 166.995 155.98 167.279 155.834C167.522 155.715 167.736 155.543 167.905 155.331C168.095 155.078 168.223 154.784 168.28 154.472C168.351 153.978 168.378 153.478 168.362 152.978Z" fill="#053541"/>
<path d="M172.519 148.041H174.442V149.081H174.479C174.789 148.704 175.182 148.403 175.627 148.202C176.071 148.002 176.556 147.906 177.043 147.923C177.613 147.91 178.177 148.031 178.692 148.274C179.112 148.529 179.491 148.846 179.818 149.214C180.587 148.342 181.62 147.911 182.915 147.923C183.74 147.927 184.535 148.234 185.149 148.787C185.818 149.37 186.166 150.225 186.191 151.352V157.913H184.279V152.022C184.279 151.331 184.087 150.804 183.729 150.443C183.543 150.259 183.321 150.115 183.078 150.02C182.834 149.925 182.574 149.881 182.313 149.891C182.05 149.882 181.789 149.926 181.544 150.021C181.299 150.116 181.076 150.259 180.887 150.443C180.503 150.805 180.31 151.331 180.31 152.022V157.898H178.398V152.022C178.398 151.331 178.215 150.805 177.85 150.443C177.661 150.259 177.438 150.115 177.193 150.021C176.948 149.926 176.686 149.882 176.424 149.891C176.163 149.881 175.903 149.925 175.659 150.02C175.415 150.115 175.194 150.259 175.008 150.443C174.623 150.805 174.431 151.331 174.431 152.022V157.898H172.519V148.041Z" fill="#053541"/>
<path d="M189.42 149.559H188.458V148.04H189.42V146.74C189.42 145.802 189.67 145.112 190.17 144.669C190.69 144.247 191.345 144.027 192.013 144.052H193.25V145.912H192.158C191.58 145.893 191.305 146.166 191.33 146.732V148.04H193.254V149.559H191.33V157.897H189.42V149.559Z" fill="#053541"/>
<path d="M194.029 152.959C194.003 152.153 194.086 151.346 194.277 150.562C194.43 150.047 194.7 149.575 195.066 149.183C195.371 148.819 195.745 148.521 196.167 148.305C196.724 148.038 197.336 147.906 197.954 147.919C198.584 147.903 199.209 148.036 199.78 148.305C200.19 148.523 200.552 148.823 200.843 149.186C201.226 149.568 201.503 150.043 201.648 150.564C201.824 151.349 201.901 152.153 201.877 152.957C201.902 153.755 201.825 154.553 201.648 155.331C201.496 155.861 201.219 156.347 200.84 156.747C200.705 156.904 200.555 157.047 200.391 157.174C200.212 157.345 200.005 157.484 199.778 157.583C199.215 157.878 198.587 158.025 197.952 158.009C197.41 158.011 196.873 157.9 196.376 157.683C195.88 157.466 195.433 157.147 195.066 156.747C194.705 156.337 194.436 155.854 194.277 155.331C194.112 154.788 194.029 153.997 194.029 152.959ZM199.966 152.978C199.979 152.462 199.948 151.946 199.874 151.435C199.815 151.133 199.683 150.852 199.489 150.614C199.336 150.382 199.119 150.2 198.864 150.092C198.577 149.955 198.262 149.889 197.944 149.899C197.633 149.894 197.326 149.96 197.044 150.092C196.79 150.211 196.57 150.39 196.401 150.614C196.231 150.862 196.109 151.141 196.043 151.435C195.954 151.938 195.917 152.448 195.932 152.959C195.916 153.463 195.954 153.968 196.043 154.464C196.109 154.77 196.23 155.061 196.401 155.323C196.584 155.527 196.802 155.698 197.044 155.827C197.323 155.968 197.632 156.04 197.944 156.037C198.263 156.044 198.579 155.972 198.864 155.827C199.107 155.708 199.321 155.536 199.489 155.323C199.684 155.072 199.815 154.777 199.874 154.464C199.948 153.973 199.978 153.475 199.966 152.978Z" fill="#053541"/>
<path d="M204.196 148.041H206.109V149.081H206.147C206.411 148.754 206.737 148.483 207.106 148.285C207.476 148.086 207.881 147.964 208.299 147.926C208.716 147.888 209.137 147.934 209.536 148.062C209.936 148.189 210.306 148.396 210.624 148.67L209.229 150.383C208.881 150.075 208.435 149.899 207.971 149.887C207.503 149.88 207.051 150.057 206.713 150.381C206.328 150.706 206.127 151.228 206.109 151.95V157.894H204.196V148.041Z" fill="#053541"/>
<path d="M211.857 145.04H213.768V148.04H215.161V149.559H213.768V155.306C213.754 155.805 213.981 156.051 214.445 156.037H215.161V157.897H214.164C213.86 157.909 213.557 157.857 213.273 157.746C212.99 157.636 212.732 157.468 212.515 157.253C212.077 156.841 211.857 156.247 211.857 155.47V149.559H210.896V148.04H211.857V145.04Z" fill="#053541"/>
<path d="M221.134 156.159L227.196 145.912H221.184V144.052H229.672V145.63L223.394 155.923H229.672V157.897H221.134V156.159Z" fill="#053541"/>
<path d="M231.369 152.959C231.343 152.153 231.426 151.346 231.617 150.562C231.77 150.048 232.039 149.575 232.404 149.183C232.71 148.82 233.084 148.522 233.505 148.305C234.063 148.038 234.676 147.906 235.294 147.919C235.924 147.903 236.549 148.036 237.119 148.305C237.529 148.524 237.891 148.824 238.183 149.186C238.565 149.569 238.842 150.043 238.988 150.564C239.164 151.349 239.241 152.153 239.216 152.957C239.242 153.755 239.165 154.553 238.986 155.331C238.836 155.862 238.559 156.348 238.179 156.747C238.045 156.904 237.895 157.047 237.731 157.174C237.552 157.346 237.343 157.484 237.116 157.583C236.554 157.878 235.926 158.025 235.292 158.009C234.75 158.011 234.213 157.899 233.717 157.682C233.22 157.465 232.774 157.147 232.406 156.747C232.045 156.337 231.777 155.854 231.619 155.331C231.452 154.788 231.369 153.997 231.369 152.959ZM237.304 152.978C237.316 152.462 237.286 151.946 237.214 151.435C237.154 151.134 237.022 150.852 236.829 150.614C236.675 150.383 236.458 150.201 236.204 150.092C235.917 149.955 235.601 149.889 235.284 149.899C234.973 149.893 234.665 149.959 234.384 150.092C234.135 150.215 233.92 150.398 233.757 150.624C233.585 150.872 233.463 151.15 233.397 151.444C233.309 151.947 233.272 152.458 233.287 152.969C233.272 153.473 233.309 153.977 233.397 154.474C233.463 154.78 233.585 155.071 233.757 155.333C233.94 155.537 234.157 155.707 234.399 155.836C234.678 155.978 234.987 156.05 235.299 156.047C235.619 156.054 235.935 155.982 236.219 155.836C236.462 155.717 236.675 155.545 236.844 155.333C237.038 155.081 237.17 154.787 237.229 154.474C237.296 153.978 237.322 153.478 237.304 152.978Z" fill="#053541"/>
<path d="M241.536 148.04H243.447V149.081H243.483C243.777 148.707 244.153 148.408 244.583 148.207C245.013 148.006 245.483 147.908 245.957 147.923C246.761 147.928 247.533 148.237 248.12 148.787C248.767 149.37 249.106 150.225 249.137 151.352V157.913H247.223V152.022C247.223 151.331 247.044 150.804 246.69 150.443C246.517 150.261 246.308 150.117 246.076 150.022C245.844 149.927 245.594 149.882 245.343 149.891C245.093 149.884 244.844 149.93 244.612 150.025C244.38 150.12 244.171 150.262 243.997 150.443C243.635 150.804 243.454 151.331 243.454 152.022V157.898H241.544L241.536 148.04Z" fill="#053541"/>
<path d="M253.38 153.712C253.38 154.504 253.601 155.106 254.042 155.518C254.253 155.729 254.506 155.893 254.783 156.001C255.061 156.109 255.358 156.158 255.656 156.145C256.051 156.14 256.441 156.051 256.8 155.885C257.159 155.719 257.479 155.479 257.739 155.18L259.124 156.406C258.152 157.481 257.01 158.013 255.696 158C255.198 158.001 254.703 157.924 254.228 157.772C253.985 157.687 253.752 157.576 253.532 157.44C253.292 157.318 253.067 157.168 252.862 156.992C252.419 156.562 252.084 156.033 251.883 155.449C251.607 154.816 251.47 153.993 251.47 152.981C251.446 152.155 251.568 151.332 251.827 150.549C252.019 149.971 252.331 149.44 252.743 148.992C253.1 148.62 253.536 148.334 254.019 148.156C254.458 147.989 254.923 147.902 255.392 147.9C256.423 147.89 257.415 148.289 258.153 149.011C258.923 149.752 259.31 150.772 259.317 152.07V153.712H253.38ZM257.407 152.081C257.381 151.309 257.181 150.727 256.808 150.335C256.425 149.973 255.919 149.771 255.393 149.771C254.867 149.771 254.361 149.973 253.978 150.335C253.617 150.729 253.417 151.311 253.38 152.081H257.407Z" fill="#053541"/>
<path fill-rule="evenodd" clip-rule="evenodd" d="M48.1399 57.5638C52.9495 56.9347 60.2716 55.3678 60.7411 54.978C91.6072 29.5192 57.1223 68.9742 91.0243 41.14C105.49 29.2664 100.316 34.274 111.681 44.0345C115.698 47.4887 120.043 38.3862 115.913 31.1054C115.794 30.897 124.413 20.5498 124.536 20.4669C124.432 19.6757 127.887 37.5487 127.706 25.1715C127.706 25.0828 130.196 16.4743 131.777 16.372C135.196 16.152 130.334 13.0915 136.202 9.39606C137.616 8.51418 139.567 4.02372 139.913 3.14377C139.971 3.23254 148.899 11.2621 150.254 12.912C151.727 14.697 159.557 16.5225 159.269 22.7999C159.253 23.1453 162.154 29.413 161.962 32.7457C161.804 35.6017 169.694 39.0037 172.584 46.1784C176.287 55.3716 171.583 37.4117 175.371 43.2009C178.449 47.9191 180.627 46.2113 185.797 53.8742C186.374 54.7136 187.793 56.6954 188.682 57.5638H189.431C189.371 57.145 189.117 56.3693 188.588 55.113C187.732 53.0791 186.808 45.5281 185.685 44.8354C183.761 43.6486 176.329 38.8069 176.354 37.2458C176.474 29.7585 186.064 42.5853 183.53 37.2998C178.674 27.1726 180.804 33.7511 178.103 32.2632C179.332 30.706 178.499 29.7006 178.844 28.7531C180.698 28.1336 181.018 29.031 176.716 24.9226C172.141 20.5595 178.097 18.5545 175.608 13.0567C174.544 10.7102 178.442 10.934 181.073 13.078C182.42 14.1798 192.357 18.5622 198.865 21.2561C204.026 27.3026 210.131 31.3389 217.178 33.3651C211.813 30.3445 207.408 26.9771 203.963 23.263C204.134 23.3234 204.308 23.3743 204.485 23.4155C212.109 24.6698 210.216 26.0708 214.75 28.6122C217.661 29.0078 223.723 36.2751 232.009 38.3785C236.392 39.4978 240.918 47.3845 245.643 50.7654C254.597 57.1643 248.485 53.8857 258.275 56.7475C259.237 57.0312 260.055 57.3052 260.776 57.5676H264.21C258.912 55.7479 255.601 51.1996 251.821 49.8816C244.372 47.3035 240.582 41.7343 235.764 36.2732C230.678 30.5053 223.452 31.1286 220.816 27.9233C219.002 25.7176 208.4 20.0597 205.493 19.1026C205.42 19.035 205.231 18.9964 205.108 18.9096C204.712 18.6413 204.519 18.6414 204.231 18.4793C203.567 18.0933 203.369 18.4793 202.653 18.4793C202.382 18.4793 201.476 17.9003 201.447 17.8251C201.368 17.7807 201.014 17.6321 200.966 17.5954C200.516 17.2095 199.327 16.3701 198.767 16.3122C198.369 16.2736 197.663 15.795 197.374 15.7024C196.605 15.4477 196.37 14.8668 195.258 14.6758C194.392 14.531 193.278 14.2416 192.522 13.7842C192.522 13.6916 183.324 11.1097 182.824 10.9765C182.626 10.9149 182.434 10.8388 182.247 10.7488C180.323 8.57593 177.193 8.1321 174.767 6.76585C173.649 6.14063 169.223 8.5026 167.66 9.52343C166.841 10.0599 166.402 10.0502 165.867 10.5037C165.538 10.7816 163.189 11.8217 162.81 11.4898C162.48 11.1965 162.697 11.2968 162.364 11.2254C160.992 10.9244 161.289 11.7098 160.633 11.8044C159.449 11.9645 159.952 12.1401 159.351 12.3505C158.357 12.7075 158.967 12.9564 157.926 12.9294C157.124 11.7175 154.848 11.3856 153.788 9.78587C153.553 9.42887 151.564 7.64774 150.927 7.6323C150.125 7.6323 147.839 5.26067 146.558 4.83614C146.546 4.83614 145.053 3.77672 144.973 3.70918C144.961 3.69953 143.836 3.20166 143.535 2.92764C143.131 2.55714 141.681 1.96278 140.554 1.65403C140.099 1.37161 139.606 1.15465 139.091 1.0095C137.402 0.594613 137.227 -0.381825 136.013 0.156567C133.558 1.22563 134.107 0.770217 131.477 2.49346C131.229 2.45872 129.855 2.73274 129.722 2.86396C129.018 3.54322 128.503 4.33827 127.72 4.32476C126.313 4.29967 126.758 4.6065 125.165 5.44207C123.818 6.15992 123.549 6.68095 122.075 7.29653C121.419 7.57441 119.872 9.03328 119.22 8.96574C118.835 9.20502 118.172 8.66277 117.402 9.85341C117.262 10.0676 116.394 10.0464 115.586 11.0595C115.553 11.1039 114.726 11.5091 114.499 11.7426C113.106 13.1725 113.858 12.2945 113.229 12.6496C112.342 13.1937 111.418 13.6735 110.463 14.0853C108.593 14.807 108.674 15.3492 107.769 15.8819C106.575 16.5881 106.5 17.003 104.97 17.5356C104.147 17.8289 101.442 19.9613 100.545 20.1234C99.6854 20.27 96.5226 23.2457 95.2798 23.7898C95.1108 23.8945 94.95 24.0119 94.7988 24.1411C92.9712 24.361 92.3517 25.6154 90.7857 26.366C90.07 26.7076 89.9123 27.1533 89.0292 27.3965C87.7749 27.7342 85.9511 29.5925 85.4374 29.7681C84.3812 30.1348 82.669 31.7403 81.6955 31.6477C81.6821 31.6477 78.7752 33.2821 78.6963 33.3998C78.6174 33.5176 78.5039 33.5504 78.5174 33.6584C77.4458 34.4979 78.1326 33.0236 76.0914 35.4589C74.7793 37.0161 71.378 38.0601 69.2137 40.4761C68.7308 41.0126 68.5268 39.7197 66.1355 43.2819C64.0193 46.4409 62.107 46.0356 59.4386 48.1718C57.4417 49.7677 56.1008 49.0807 53.0899 51.491C51.0206 53.117 48.8073 54.5496 46.4777 55.7711C45.5927 56.2497 44.8751 57.2743 43.9863 57.5676L48.1399 57.5638Z" fill="#053541"/>
<path fill-rule="evenodd" clip-rule="evenodd" d="M294.434 125.517C198.092 128.09 101.683 128.09 5.20605 125.517C101.589 124.046 197.999 124.046 294.434 125.517Z" fill="#053541"/>
<path fill-rule="evenodd" clip-rule="evenodd" d="M281.364 158.696C275.819 155.229 271.204 150.456 267.92 144.791C273.028 148.772 277.553 153.453 281.364 158.696Z" fill="#053541"/>
<path fill-rule="evenodd" clip-rule="evenodd" d="M266.5 158.696C270.311 153.453 274.837 148.773 279.944 144.791C276.66 150.456 272.044 155.229 266.5 158.696Z" fill="#053541"/>
<path fill-rule="evenodd" clip-rule="evenodd" d="M43.8305 158.696C38.2862 155.229 33.671 150.456 30.3867 144.791C35.4944 148.772 40.0198 153.453 43.8305 158.696Z" fill="#053541"/>
<path fill-rule="evenodd" clip-rule="evenodd" d="M28.9668 158.696C32.778 153.453 37.3033 148.773 42.4106 144.791C39.1263 150.456 34.5111 155.229 28.9668 158.696Z" fill="#053541"/>
</g>
<defs>
<clipPath id="clip0_182_726">
<rect width="300" height="162" fill="white"/>
</clipPath>
</defs>
</svg>
