<svg width="584" height="155" viewBox="0 0 584 155" fill="none" xmlns="http://www.w3.org/2000/svg">
<g clip-path="url(#clip0_182_801)">
<path fill-rule="evenodd" clip-rule="evenodd" d="M-2.76774 155C10.2933 153.306 30.1773 149.087 31.4521 148.032C115.278 79.4848 21.625 185.725 113.689 110.776C152.972 78.8041 138.923 92.2828 169.784 118.57C180.692 127.876 192.494 103.366 181.277 83.756C180.948 83.1896 204.359 55.3281 204.693 55.1047C204.411 52.9743 213.789 101.101 213.303 67.7728C213.303 67.5338 220.063 44.3539 224.358 44.0785C233.641 43.4862 220.439 35.2451 236.374 25.2998C240.214 22.92 245.511 10.8286 246.446 8.46437C246.603 8.70339 270.85 30.3192 274.533 34.7619C278.535 39.5735 299.798 44.489 299.009 61.3868C298.967 62.3221 306.846 79.1938 306.323 88.1727C305.9 95.8578 327.32 105.018 335.167 124.338C345.224 149.097 332.451 100.732 342.737 116.32C351.096 129.03 357.01 124.431 371.048 145.06C372.616 147.32 376.471 152.656 378.885 154.995H380.917C380.755 153.862 380.066 151.773 378.629 148.396C376.299 142.914 373.791 122.587 370.745 120.716C365.521 117.52 345.339 104.483 345.407 100.28C345.736 80.1187 371.78 114.657 364.899 100.425C351.77 73.1611 357.543 90.8695 350.203 86.8633C353.541 82.67 351.279 79.9629 352.209 77.4168C357.251 75.7488 358.113 78.165 346.431 67.1025C334.007 55.3541 350.182 49.9553 343.427 35.1516C340.538 28.8331 351.122 29.4359 358.269 35.2036C361.927 38.1757 388.911 49.9761 406.585 57.2299C420.603 73.511 437.18 84.3795 456.316 89.8355C441.719 81.6984 429.744 72.6259 420.393 62.6182C420.857 62.7799 421.329 62.9152 421.809 63.0235C442.513 66.401 437.372 70.1734 449.681 77.0219C457.585 78.0871 474.047 97.6556 496.549 103.319C508.45 106.328 520.743 127.564 533.574 136.673C557.888 153.904 541.296 145.07 567.878 152.781C570.49 153.545 572.71 154.278 574.669 154.989H584C569.612 150.09 560.621 137.842 550.35 134.288C530.121 127.351 519.829 112.355 506.747 97.6504C492.934 82.114 473.311 83.7976 466.153 75.1668C461.227 69.2277 432.435 53.9927 424.541 51.4206C424.342 51.2388 423.83 51.1296 423.496 50.901C422.42 50.1788 421.897 50.1788 421.114 49.7475C419.311 48.7083 418.773 49.7735 416.825 49.7475C416.093 49.7475 413.627 48.1886 413.549 47.986C413.335 47.8665 412.379 47.4664 412.243 47.3676C411.015 46.3284 407.792 44.0681 406.271 43.9122C405.19 43.8083 403.278 42.5197 402.489 42.2703C400.399 41.5844 399.762 40.0204 396.742 39.5111C394.391 39.1162 391.366 38.342 389.313 37.1053C389.339 36.8559 364.335 29.9035 362.977 29.5502C362.44 29.3818 361.916 29.1751 361.409 28.9319C356.185 23.081 347.68 21.8859 341.092 18.2071C338.056 16.5235 326.04 22.8836 321.798 25.6323C319.572 27.0768 318.381 27.0509 316.924 28.2719C316.03 29.0202 309.651 31.8209 308.622 30.9272C307.723 30.1374 308.314 30.4075 307.41 30.2205C303.685 29.4047 304.49 31.5195 302.708 31.7793C299.495 32.2158 300.864 32.6886 299.229 33.2498C296.528 34.2111 298.184 34.8814 295.363 34.8087C293.184 31.5507 287.003 30.6518 284.125 26.3442C283.487 25.3829 278.085 20.5869 276.356 20.5505C274.178 20.5245 267.971 14.1645 264.492 13.0214C264.46 13.0214 260.406 10.1687 260.187 9.98684C260.155 9.96086 257.099 8.62026 256.284 7.88241C255.187 6.88476 251.248 5.28436 248.186 4.45298C246.953 3.69143 245.618 3.10714 244.221 2.71747C239.634 1.60031 239.153 -1.02892 235.862 0.415601C229.201 3.29425 230.684 2.07316 223.543 6.71328C222.869 6.61975 219.144 7.35761 218.778 7.71094C216.871 9.53998 215.466 11.6808 213.339 11.6392C209.52 11.5717 210.727 12.403 206.407 14.6478C202.75 16.5807 202.018 17.9837 198.011 19.6412C196.235 20.3895 192.034 24.3177 190.258 24.1358C189.213 24.7802 187.416 23.3201 185.321 26.5261C184.94 27.1028 182.583 27.0457 180.389 29.7736C180.3 29.8931 178.054 30.9843 177.437 31.6131C173.655 35.4634 175.692 33.0991 173.984 34.0552C171.576 35.5175 169.067 36.8093 166.477 37.9211C161.398 39.8645 161.613 41.3246 159.162 42.7587C155.923 44.6657 155.714 45.7828 151.566 47.2118C149.33 48.0016 141.985 53.7433 139.55 54.1798C137.215 54.5747 128.626 62.5923 125.251 64.0524C124.791 64.333 124.354 64.6492 123.945 64.9981C118.982 65.5904 117.299 68.9679 113.047 70.9892C111.103 71.9089 110.675 73.104 108.277 73.7639C104.871 74.6732 99.9178 79.6771 98.5229 80.1499C95.6547 81.1372 91.005 85.4603 88.3666 85.2109C88.3249 85.2109 80.436 89.612 80.2166 89.929C79.9972 90.2459 79.7203 90.3343 79.7307 90.6253C76.826 92.8856 78.6858 88.9158 73.1428 95.4732C69.5797 99.6665 60.343 102.478 54.4655 108.983C53.1594 110.428 52.6004 106.946 46.1065 116.538C40.3597 125.039 35.1353 123.953 27.9151 129.705C22.4922 134.002 18.856 132.147 10.6746 138.643C5.05475 143.02 -0.955667 146.878 -7.28162 150.168C-9.68484 151.456 -11.6335 154.215 -14.042 155.005H-2.80954L-2.76774 155Z" fill="#F4F2ED"/>
</g>
<defs>
<clipPath id="clip0_182_801">
<rect width="598" height="155" fill="white" transform="translate(-14)"/>
</clipPath>
</defs>
</svg>
